<svg width="32" height="32" viewBox="0 0 32 32" class="fill-white" fill="none" xmlns="http://www.w3.org/2000/svg">
<path d="M20.2286 22.293C20.4214 22.4828 20.4214 22.7711 20.2286 22.9398C18.4786 24.6625 13.5286 24.6695 11.7714 22.9398C11.5786 22.7711 11.5786 22.4828 11.7714 22.293C11.9429 22.1242 12.2357 22.1242 12.4071 22.293C13.7429 23.643 18.1929 23.6711 19.5857 22.293C19.7571 22.1313 20.0571 22.1313 20.2286 22.293ZM13.7071 18.5102C13.7071 17.4625 12.8571 16.6258 11.8143 16.6258C10.75 16.6258 9.9 17.4625 9.9 18.5102C9.9 19.5367 10.75 20.3734 11.8143 20.3734C12.8571 20.3734 13.7071 19.5367 13.7071 18.5102ZM20.1857 16.6258C19.1429 16.6258 18.2929 17.4625 18.2929 18.5102C18.2929 19.5367 19.1429 20.3734 20.1857 20.3734C21.25 20.3734 22.1 19.5367 22.1 18.5102C22.1 17.4625 21.25 16.6258 20.1857 16.6258ZM32 3.625V28.375C32 30.2383 30.4643 31.75 28.5714 31.75H3.42857C1.53571 31.75 0 30.2383 0 28.375V3.625C0 1.76172 1.53571 0.25 3.42857 0.25H28.5714C30.4643 0.25 32 1.76172 32 3.625ZM24.8786 13.5109C24.1571 13.5109 23.5214 13.8063 23.05 14.2633C21.3286 13.0891 19.0143 12.3367 16.4429 12.2523L17.7786 6.33203L22.0286 7.27422C22.0286 8.30078 22.8786 9.1375 23.9214 9.1375C24.9857 9.1375 25.8357 8.27969 25.8357 7.25313C25.8357 6.22656 24.9857 5.36875 23.9214 5.36875C23.1786 5.36875 22.5429 5.80469 22.2214 6.41641L17.5286 5.38984C17.2929 5.32656 17.0643 5.49531 17 5.72734L15.5357 12.2523C12.9857 12.3578 10.6929 13.1102 8.97143 14.2844C8.50714 13.8063 7.84286 13.5109 7.12143 13.5109C4.44286 13.5109 3.56429 17.0547 6.01429 18.257C5.92857 18.6367 5.88571 19.0305 5.88571 19.4312C5.88571 23.4039 10.4357 26.6242 16.0214 26.6242C21.6286 26.6242 26.1786 23.4039 26.1786 19.4312C26.1786 19.0305 26.1357 18.6156 26.0286 18.2359C28.4286 17.0266 27.5429 13.5109 24.8786 13.5109Z" fill="#FF4500"/>
</svg>
